<mxfile host="app.diagrams.net" modified="2023-05-28T15:58:15.637Z" agent="Mozilla/5.0 (Windows NT 10.0; Win64; x64) AppleWebKit/537.36 (KHTML, like Gecko) Chrome/113.0.0.0 Safari/537.36 Edg/113.0.1774.57" etag="R-yDWZgJVhY7uMufoAUm" version="21.3.5" type="github">
  <diagram name="第 1 页" id="lMDj3vS_iH2XKWsvDy5g">
    <mxGraphModel dx="994" dy="581" grid="1" gridSize="10" guides="1" tooltips="1" connect="1" arrows="1" fold="1" page="1" pageScale="1" pageWidth="827" pageHeight="1169" math="0" shadow="0">
      <root>
        <mxCell id="0" />
        <mxCell id="1" parent="0" />
        <mxCell id="yOJ6stdo72_agYnsj1yz-1" value="" style="rounded=20;whiteSpace=wrap;html=1;fillColor=#dae8fc;strokeColor=#6c8ebf;" vertex="1" parent="1">
          <mxGeometry x="10" y="180" width="790" height="410" as="geometry" />
        </mxCell>
        <mxCell id="yOJ6stdo72_agYnsj1yz-2" value="&lt;b&gt;&lt;font style=&quot;font-size: 16px;&quot;&gt;NIC&lt;/font&gt;&lt;/b&gt;" style="rounded=0;whiteSpace=wrap;html=1;" vertex="1" parent="1">
          <mxGeometry x="140" y="620" width="480" height="60" as="geometry" />
        </mxCell>
        <mxCell id="yOJ6stdo72_agYnsj1yz-4" value="" style="rounded=0;whiteSpace=wrap;html=1;" vertex="1" parent="1">
          <mxGeometry x="20" y="260" width="770" height="320" as="geometry" />
        </mxCell>
        <mxCell id="yOJ6stdo72_agYnsj1yz-5" value="" style="rounded=0;whiteSpace=wrap;html=1;" vertex="1" parent="1">
          <mxGeometry x="20" y="190" width="770" height="60" as="geometry" />
        </mxCell>
      </root>
    </mxGraphModel>
  </diagram>
</mxfile>
